<svg width="512" height="512" viewBox="0 0 512 512" fill="none" xmlns="http://www.w3.org/2000/svg">
<circle cx="256" cy="256" r="231" fill="white"/>
<g clip-path="url(#clip0_613_34)">
<path d="M264.23 245.669C255.216 224.023 315.427 126.022 345.669 115.74C361.509 110.355 379.052 135.877 384.014 156.617C388.999 177.45 386.812 199.231 373.054 216.055C357.549 235.016 272.431 265.364 264.23 245.669Z" fill="#63C862"/>
<path d="M242.108 250.422C229.029 256.913 195.961 248.583 161.414 235.349C130.983 223.692 93.9771 192.774 93.4831 183.157C92.7338 168.567 114.092 155.321 138.768 150.794C163.555 146.247 192.648 145.325 209.021 159.072C236.778 182.377 266.51 238.311 242.108 250.422Z" fill="#FFCA3D"/>
<path d="M263.926 270.126C287.176 282.306 314.843 398.451 303.219 411.665C292.732 423.586 264.019 416.434 244.01 403.642C223.911 390.793 214.931 368.826 216.305 349.046C218.633 315.512 240.677 257.947 263.926 270.126Z" fill="#4EBFFE"/>
</g>
<defs>
<clipPath id="clip0_613_34">
<rect width="367" height="367" fill="white" transform="translate(72 72)"/>
</clipPath>
</defs>
</svg>
