<svg width="96" height="96" viewBox="0 0 96 96" fill="none" xmlns="http://www.w3.org/2000/svg">
<path d="M89.4042 24C86.3562 25.4 83.0708 26.32 79.6667 26.76C83.15 24.64 85.8417 21.28 87.1083 17.24C83.8229 19.24 80.1812 20.64 76.3417 21.44C73.2146 18 68.8208 16 63.8333 16C54.5312 16 46.9312 23.68 46.9312 33.16C46.9312 34.52 47.0896 35.84 47.3667 37.08C33.275 36.36 20.7271 29.52 12.375 19.16C10.9104 21.68 10.0792 24.64 10.0792 27.76C10.0792 33.72 13.0479 39 17.6396 42C14.8292 42 12.2167 41.2 9.92083 40V40.12C9.92083 48.44 15.7792 55.4 23.5375 56.96C21.0466 57.6488 18.4316 57.7447 15.8979 57.24C16.973 60.6499 19.0786 63.6336 21.9186 65.7717C24.7586 67.9098 28.1903 69.0948 31.7312 69.16C25.7289 73.9618 18.2887 76.5573 10.6333 76.52C9.28749 76.52 7.94166 76.44 6.59583 76.28C14.1167 81.16 23.0625 84 32.6417 84C63.8333 84 80.9729 57.84 80.9729 35.16C80.9729 34.4 80.9729 33.68 80.9333 32.92C84.2583 30.52 87.1083 27.48 89.4042 24Z" fill="#717070"/>
</svg>
